<svg width="1236" height="718" viewBox="0 0 1236 718" fill="none" xmlns="http://www.w3.org/2000/svg">
<g clip-path="url(#clip0_116_855)">
<rect y="-798" width="1440" height="2022" rx="25" fill="white"/>
<path d="M1511.77 1337.89C2016.81 2072.99 1186.23 2243.91 662.981 2131.97C110.234 2039.97 -512.709 2188.25 -156.766 1526.66C-164.786 1306.22 -1169 762.891 662.981 1097.17C2098.87 494.567 1503.75 1117.45 1511.77 1337.89Z" fill="#2B6036" fill-opacity="0.18"/>
<path d="M84.3399 594V573.398H87.2132V594H84.3399ZM77.126 575.415V572.786H94.3965V575.415H77.126ZM99.4756 594.306C98.151 594.306 96.9487 593.98 95.8687 593.328C94.7887 592.655 93.9328 591.748 93.3011 590.607C92.6897 589.466 92.384 588.182 92.384 586.756C92.384 585.329 92.6897 584.045 93.3011 582.904C93.9328 581.763 94.7785 580.856 95.8381 580.184C96.9182 579.511 98.1307 579.175 99.4756 579.175C100.576 579.175 101.554 579.409 102.41 579.878C103.286 580.326 103.989 580.958 104.519 581.773C105.049 582.568 105.345 583.495 105.406 584.555V588.926C105.345 589.965 105.049 590.892 104.519 591.707C104.01 592.523 103.317 593.164 102.441 593.633C101.585 594.082 100.596 594.306 99.4756 594.306ZM99.9341 591.707C101.299 591.707 102.4 591.249 103.235 590.332C104.071 589.395 104.489 588.202 104.489 586.756C104.489 585.757 104.295 584.891 103.908 584.157C103.541 583.403 103.011 582.823 102.318 582.415C101.626 581.987 100.821 581.773 99.9036 581.773C98.9865 581.773 98.1714 581.987 97.4582 582.415C96.7653 582.843 96.2151 583.434 95.8076 584.188C95.4204 584.922 95.2268 585.767 95.2268 586.725C95.2268 587.703 95.4204 588.569 95.8076 589.323C96.2151 590.057 96.7755 590.638 97.4888 591.066C98.202 591.493 99.0171 591.707 99.9341 591.707ZM104.305 594V590.087L104.825 586.542L104.305 583.026V579.481H107.087V594H104.305ZM120.385 594L113.599 586.572L120.323 579.481H123.655L116.166 587.306L116.289 585.716L123.93 594H120.385ZM111.092 594V572.175H113.843V594H111.092ZM125.809 594V579.481H128.56V594H125.809ZM127.185 576.577C126.675 576.577 126.258 576.414 125.931 576.088C125.605 575.741 125.442 575.313 125.442 574.804C125.442 574.315 125.605 573.907 125.931 573.581C126.258 573.235 126.675 573.062 127.185 573.062C127.694 573.062 128.112 573.235 128.438 573.581C128.764 573.907 128.927 574.315 128.927 574.804C128.927 575.313 128.764 575.741 128.438 576.088C128.112 576.414 127.694 576.577 127.185 576.577ZM142.885 594V585.533C142.885 584.432 142.539 583.526 141.846 582.812C141.153 582.099 140.256 581.743 139.156 581.743C138.422 581.743 137.77 581.906 137.2 582.232C136.629 582.558 136.181 583.006 135.855 583.577C135.529 584.147 135.366 584.799 135.366 585.533L134.235 584.891C134.235 583.791 134.479 582.812 134.968 581.957C135.457 581.101 136.14 580.428 137.016 579.939C137.892 579.43 138.881 579.175 139.981 579.175C141.082 579.175 142.05 579.45 142.885 580C143.741 580.55 144.413 581.274 144.902 582.171C145.392 583.047 145.636 583.984 145.636 584.983V594H142.885ZM132.614 594V579.481H135.366V594H132.614ZM155.382 600.389C153.895 600.389 152.57 600.113 151.409 599.563C150.268 599.013 149.351 598.239 148.658 597.24L150.431 595.437C151.022 596.191 151.725 596.761 152.54 597.148C153.355 597.556 154.323 597.76 155.444 597.76C156.931 597.76 158.103 597.362 158.959 596.568C159.835 595.793 160.273 594.744 160.273 593.419V589.812L160.762 586.542L160.273 583.302V579.481H163.024V593.419C163.024 594.805 162.698 596.017 162.046 597.057C161.414 598.096 160.518 598.911 159.356 599.502C158.215 600.093 156.89 600.389 155.382 600.389ZM155.382 593.755C154.058 593.755 152.866 593.44 151.806 592.808C150.767 592.176 149.941 591.31 149.33 590.21C148.719 589.089 148.413 587.836 148.413 586.45C148.413 585.064 148.719 583.831 149.33 582.751C149.941 581.651 150.767 580.785 151.806 580.153C152.866 579.501 154.058 579.175 155.382 579.175C156.524 579.175 157.532 579.399 158.409 579.847C159.285 580.296 159.978 580.927 160.487 581.743C161.017 582.537 161.302 583.475 161.343 584.555V588.406C161.282 589.466 160.986 590.403 160.457 591.218C159.947 592.013 159.254 592.635 158.378 593.083C157.502 593.531 156.503 593.755 155.382 593.755ZM155.933 591.157C156.829 591.157 157.614 590.964 158.286 590.576C158.979 590.189 159.509 589.649 159.876 588.956C160.243 588.243 160.426 587.418 160.426 586.48C160.426 585.543 160.232 584.728 159.845 584.035C159.478 583.322 158.959 582.772 158.286 582.384C157.614 581.977 156.819 581.773 155.902 581.773C154.985 581.773 154.18 581.977 153.487 582.384C152.794 582.772 152.244 583.322 151.837 584.035C151.449 584.728 151.256 585.533 151.256 586.45C151.256 587.367 151.449 588.182 151.837 588.895C152.244 589.609 152.794 590.169 153.487 590.576C154.201 590.964 155.016 591.157 155.933 591.157ZM175.652 594V573.398H178.403V594H175.652ZM172.075 581.987V579.481H181.979V581.987H172.075ZM194.945 594V585.533C194.945 584.432 194.598 583.526 193.905 582.812C193.213 582.099 192.316 581.743 191.215 581.743C190.482 581.743 189.83 581.906 189.259 582.232C188.689 582.558 188.24 583.006 187.914 583.577C187.588 584.147 187.425 584.799 187.425 585.533L186.294 584.891C186.294 583.791 186.539 582.812 187.028 581.957C187.517 581.101 188.2 580.428 189.076 579.939C189.952 579.43 190.94 579.175 192.041 579.175C193.141 579.175 194.109 579.419 194.945 579.909C195.801 580.398 196.473 581.08 196.962 581.957C197.451 582.833 197.696 583.842 197.696 584.983V594H194.945ZM184.674 594V572.175H187.425V594H184.674ZM208.145 594.306C206.698 594.306 205.394 593.98 204.233 593.328C203.071 592.655 202.154 591.748 201.482 590.607C200.809 589.466 200.473 588.172 200.473 586.725C200.473 585.299 200.799 584.015 201.451 582.874C202.123 581.732 203.02 580.836 204.141 580.184C205.282 579.511 206.556 579.175 207.962 579.175C209.307 579.175 210.489 579.481 211.508 580.092C212.547 580.703 213.352 581.549 213.922 582.629C214.513 583.709 214.809 584.932 214.809 586.297C214.809 586.501 214.799 586.725 214.778 586.97C214.758 587.194 214.717 587.459 214.656 587.764H202.399V585.472H213.189L212.18 586.358C212.18 585.38 212.007 584.555 211.66 583.882C211.314 583.189 210.825 582.66 210.193 582.293C209.561 581.906 208.797 581.712 207.901 581.712C206.963 581.712 206.138 581.916 205.425 582.323C204.711 582.731 204.161 583.302 203.774 584.035C203.387 584.769 203.193 585.635 203.193 586.633C203.193 587.652 203.397 588.549 203.805 589.323C204.212 590.077 204.793 590.668 205.547 591.096C206.301 591.504 207.167 591.707 208.145 591.707C208.96 591.707 209.704 591.565 210.377 591.28C211.069 590.994 211.66 590.566 212.149 589.996L213.922 591.799C213.229 592.614 212.374 593.236 211.355 593.664C210.356 594.092 209.286 594.306 208.145 594.306ZM97.4934 633.306C95.9651 633.306 94.5488 633.031 93.2446 632.48C91.9404 631.91 90.7992 631.125 89.8211 630.127C88.8633 629.128 88.1195 627.967 87.5897 626.642C87.0598 625.317 86.7949 623.901 86.7949 622.393C86.7949 620.865 87.0598 619.438 87.5897 618.114C88.1195 616.789 88.8633 615.638 89.8211 614.66C90.7992 613.661 91.9302 612.887 93.214 612.337C94.5182 611.766 95.9345 611.481 97.4628 611.481C99.1338 611.481 100.601 611.766 101.865 612.337C103.128 612.907 104.249 613.682 105.227 614.66L103.24 616.647C102.568 615.893 101.742 615.302 100.764 614.874C99.8063 614.446 98.7059 614.232 97.4628 614.232C96.342 614.232 95.313 614.436 94.3756 614.843C93.4382 615.23 92.623 615.791 91.9302 616.524C91.2373 617.258 90.6973 618.124 90.3101 619.123C89.9433 620.121 89.7599 621.211 89.7599 622.393C89.7599 623.575 89.9433 624.665 90.3101 625.664C90.6973 626.662 91.2373 627.528 91.9302 628.262C92.623 628.996 93.4382 629.566 94.3756 629.974C95.313 630.361 96.342 630.555 97.4628 630.555C98.7874 630.555 99.9388 630.341 100.917 629.913C101.895 629.464 102.72 628.863 103.393 628.109L105.38 630.066C104.402 631.084 103.25 631.879 101.926 632.45C100.621 633.02 99.144 633.306 97.4934 633.306ZM114.546 633.306C113.12 633.306 111.836 632.969 110.695 632.297C109.553 631.624 108.647 630.718 107.974 629.576C107.302 628.415 106.965 627.121 106.965 625.694C106.965 624.288 107.302 623.025 107.974 621.904C108.647 620.763 109.553 619.856 110.695 619.184C111.836 618.511 113.12 618.175 114.546 618.175C115.952 618.175 117.226 618.511 118.367 619.184C119.528 619.836 120.446 620.732 121.118 621.874C121.79 623.015 122.127 624.288 122.127 625.694C122.127 627.121 121.79 628.415 121.118 629.576C120.446 630.718 119.528 631.624 118.367 632.297C117.226 632.969 115.952 633.306 114.546 633.306ZM114.546 630.646C115.463 630.646 116.278 630.432 116.991 630.004C117.705 629.576 118.265 628.996 118.673 628.262C119.08 627.508 119.284 626.652 119.284 625.694C119.284 624.757 119.07 623.922 118.642 623.188C118.234 622.454 117.674 621.884 116.961 621.476C116.268 621.048 115.463 620.834 114.546 620.834C113.629 620.834 112.814 621.048 112.101 621.476C111.387 621.884 110.827 622.454 110.419 623.188C110.012 623.922 109.808 624.757 109.808 625.694C109.808 626.652 110.012 627.508 110.419 628.262C110.827 628.996 111.387 629.576 112.101 630.004C112.814 630.432 113.629 630.646 114.546 630.646ZM135.497 633V624.533C135.497 623.432 135.151 622.526 134.458 621.812C133.765 621.099 132.868 620.743 131.768 620.743C131.034 620.743 130.382 620.906 129.811 621.232C129.241 621.558 128.793 622.006 128.467 622.577C128.14 623.147 127.977 623.799 127.977 624.533L126.846 623.891C126.846 622.791 127.091 621.812 127.58 620.957C128.069 620.101 128.752 619.428 129.628 618.939C130.504 618.43 131.493 618.175 132.593 618.175C133.693 618.175 134.661 618.45 135.497 619C136.353 619.55 137.025 620.274 137.514 621.171C138.003 622.047 138.248 622.984 138.248 623.983V633H135.497ZM125.226 633V618.481H127.977V633H125.226ZM144.025 633V612.398H146.776V633H144.025ZM140.449 620.987V618.481H150.352V620.987H140.449ZM153.047 633V618.481H155.798V633H153.047ZM155.798 624.716L154.759 624.258C154.759 622.403 155.187 620.926 156.043 619.826C156.899 618.725 158.132 618.175 159.741 618.175C160.475 618.175 161.137 618.307 161.728 618.572C162.319 618.817 162.87 619.235 163.379 619.826L161.576 621.69C161.27 621.364 160.934 621.13 160.567 620.987C160.2 620.844 159.772 620.773 159.283 620.773C158.264 620.773 157.429 621.099 156.776 621.751C156.124 622.403 155.798 623.392 155.798 624.716ZM171.013 633.306C169.688 633.306 168.486 632.98 167.406 632.328C166.326 631.655 165.47 630.748 164.838 629.607C164.227 628.466 163.921 627.182 163.921 625.756C163.921 624.329 164.227 623.045 164.838 621.904C165.47 620.763 166.316 619.856 167.375 619.184C168.455 618.511 169.668 618.175 171.013 618.175C172.113 618.175 173.091 618.409 173.947 618.878C174.824 619.326 175.527 619.958 176.056 620.773C176.586 621.568 176.882 622.495 176.943 623.555V627.926C176.882 628.965 176.586 629.892 176.056 630.707C175.547 631.523 174.854 632.164 173.978 632.633C173.122 633.082 172.134 633.306 171.013 633.306ZM171.471 630.707C172.837 630.707 173.937 630.249 174.773 629.332C175.608 628.395 176.026 627.202 176.026 625.756C176.026 624.757 175.832 623.891 175.445 623.157C175.078 622.403 174.548 621.823 173.856 621.415C173.163 620.987 172.358 620.773 171.441 620.773C170.524 620.773 169.709 620.987 168.995 621.415C168.303 621.843 167.752 622.434 167.345 623.188C166.958 623.922 166.764 624.767 166.764 625.725C166.764 626.703 166.958 627.569 167.345 628.323C167.752 629.057 168.313 629.638 169.026 630.066C169.739 630.493 170.554 630.707 171.471 630.707ZM175.842 633V629.087L176.362 625.542L175.842 622.026V618.481H178.624V633H175.842ZM189.262 633.306C187.836 633.306 186.542 632.969 185.38 632.297C184.239 631.624 183.332 630.718 182.66 629.576C182.008 628.415 181.682 627.131 181.682 625.725C181.682 624.299 182.008 623.015 182.66 621.874C183.332 620.732 184.239 619.836 185.38 619.184C186.542 618.511 187.836 618.175 189.262 618.175C190.383 618.175 191.422 618.389 192.38 618.817C193.338 619.224 194.163 619.826 194.856 620.62L193.022 622.454C192.574 621.925 192.024 621.527 191.372 621.262C190.74 620.977 190.037 620.834 189.262 620.834C188.345 620.834 187.53 621.048 186.817 621.476C186.104 621.884 185.543 622.454 185.136 623.188C184.728 623.922 184.525 624.767 184.525 625.725C184.525 626.683 184.728 627.528 185.136 628.262C185.543 628.996 186.104 629.576 186.817 630.004C187.53 630.432 188.345 630.646 189.262 630.646C190.037 630.646 190.74 630.514 191.372 630.249C192.024 629.964 192.584 629.556 193.053 629.026L194.856 630.86C194.184 631.635 193.358 632.236 192.38 632.664C191.422 633.092 190.383 633.306 189.262 633.306ZM199.637 633V612.398H202.388V633H199.637ZM196.06 620.987V618.481H205.964V620.987H196.06Z" fill="black"/>
<path d="M579.417 664V661.371H585.316C586.885 661.371 588.261 661.035 589.443 660.363C590.625 659.67 591.542 658.722 592.194 657.52C592.866 656.317 593.202 654.932 593.202 653.363C593.202 651.814 592.866 650.438 592.194 649.236C591.521 648.034 590.594 647.096 589.412 646.424C588.23 645.751 586.865 645.415 585.316 645.415H579.447V642.786H585.377C586.926 642.786 588.352 643.051 589.657 643.581C590.981 644.111 592.122 644.855 593.08 645.813C594.058 646.77 594.812 647.891 595.342 649.175C595.892 650.459 596.167 651.865 596.167 653.393C596.167 654.901 595.892 656.307 595.342 657.611C594.812 658.895 594.069 660.016 593.111 660.974C592.153 661.932 591.012 662.675 589.687 663.205C588.383 663.735 586.967 664 585.438 664H579.417ZM577.521 664V642.786H580.395V664H577.521ZM606.292 664.306C604.866 664.306 603.582 663.969 602.441 663.297C601.3 662.624 600.393 661.718 599.72 660.576C599.048 659.415 598.712 658.121 598.712 656.694C598.712 655.288 599.048 654.025 599.72 652.904C600.393 651.763 601.3 650.856 602.441 650.184C603.582 649.511 604.866 649.175 606.292 649.175C607.698 649.175 608.972 649.511 610.113 650.184C611.275 650.836 612.192 651.732 612.864 652.874C613.537 654.015 613.873 655.288 613.873 656.694C613.873 658.121 613.537 659.415 612.864 660.576C612.192 661.718 611.275 662.624 610.113 663.297C608.972 663.969 607.698 664.306 606.292 664.306ZM606.292 661.646C607.209 661.646 608.024 661.432 608.738 661.004C609.451 660.576 610.011 659.996 610.419 659.262C610.826 658.508 611.03 657.652 611.03 656.694C611.03 655.757 610.816 654.922 610.388 654.188C609.981 653.454 609.42 652.884 608.707 652.476C608.014 652.048 607.209 651.834 606.292 651.834C605.375 651.834 604.56 652.048 603.847 652.476C603.134 652.884 602.573 653.454 602.166 654.188C601.758 654.922 601.554 655.757 601.554 656.694C601.554 657.652 601.758 658.508 602.166 659.262C602.573 659.996 603.134 660.576 603.847 661.004C604.56 661.432 605.375 661.646 606.292 661.646ZM617.003 664V649.481H619.754V664H617.003ZM618.379 646.577C617.869 646.577 617.452 646.414 617.126 646.088C616.799 645.741 616.636 645.313 616.636 644.804C616.636 644.315 616.799 643.907 617.126 643.581C617.452 643.235 617.869 643.062 618.379 643.062C618.888 643.062 619.306 643.235 619.632 643.581C619.958 643.907 620.121 644.315 620.121 644.804C620.121 645.313 619.958 645.741 619.632 646.088C619.306 646.414 618.888 646.577 618.379 646.577ZM634.079 664V655.533C634.079 654.432 633.733 653.526 633.04 652.812C632.347 652.099 631.45 651.743 630.35 651.743C629.616 651.743 628.964 651.906 628.394 652.232C627.823 652.558 627.375 653.006 627.049 653.577C626.723 654.147 626.56 654.799 626.56 655.533L625.429 654.891C625.429 653.791 625.673 652.812 626.162 651.957C626.651 651.101 627.334 650.428 628.21 649.939C629.086 649.43 630.075 649.175 631.175 649.175C632.276 649.175 633.244 649.45 634.079 650C634.935 650.55 635.607 651.274 636.096 652.171C636.586 653.047 636.83 653.984 636.83 654.983V664H634.079ZM623.808 664V649.481H626.56V664H623.808ZM646.576 670.389C645.089 670.389 643.764 670.113 642.603 669.563C641.462 669.013 640.545 668.239 639.852 667.24L641.625 665.437C642.216 666.191 642.919 666.761 643.734 667.148C644.549 667.556 645.517 667.76 646.638 667.76C648.125 667.76 649.297 667.362 650.153 666.568C651.029 665.793 651.467 664.744 651.467 663.419V659.812L651.956 656.542L651.467 653.302V649.481H654.218V663.419C654.218 664.805 653.892 666.017 653.24 667.057C652.608 668.096 651.712 668.911 650.55 669.502C649.409 670.093 648.084 670.389 646.576 670.389ZM646.576 663.755C645.252 663.755 644.06 663.44 643 662.808C641.961 662.176 641.136 661.31 640.524 660.21C639.913 659.089 639.607 657.836 639.607 656.45C639.607 655.064 639.913 653.831 640.524 652.751C641.136 651.651 641.961 650.785 643 650.153C644.06 649.501 645.252 649.175 646.576 649.175C647.718 649.175 648.726 649.399 649.603 649.847C650.479 650.296 651.172 650.927 651.681 651.743C652.211 652.537 652.496 653.475 652.537 654.555V658.406C652.476 659.466 652.18 660.403 651.651 661.218C651.141 662.013 650.448 662.635 649.572 663.083C648.696 663.531 647.697 663.755 646.576 663.755ZM647.127 661.157C648.023 661.157 648.808 660.964 649.48 660.576C650.173 660.189 650.703 659.649 651.07 658.956C651.437 658.243 651.62 657.418 651.62 656.48C651.62 655.543 651.426 654.728 651.039 654.035C650.672 653.322 650.153 652.772 649.48 652.384C648.808 651.977 648.013 651.773 647.096 651.773C646.179 651.773 645.374 651.977 644.681 652.384C643.988 652.772 643.438 653.322 643.031 654.035C642.644 654.728 642.45 655.533 642.45 656.45C642.45 657.367 642.644 658.182 643.031 658.895C643.438 659.609 643.988 660.169 644.681 660.576C645.395 660.964 646.21 661.157 647.127 661.157ZM666.846 664V643.398H669.597V664H666.846ZM663.269 651.987V649.481H673.173V651.987H663.269ZM686.139 664V655.533C686.139 654.432 685.792 653.526 685.099 652.812C684.407 652.099 683.51 651.743 682.41 651.743C681.676 651.743 681.024 651.906 680.453 652.232C679.883 652.558 679.434 653.006 679.108 653.577C678.782 654.147 678.619 654.799 678.619 655.533L677.488 654.891C677.488 653.791 677.733 652.812 678.222 651.957C678.711 651.101 679.394 650.428 680.27 649.939C681.146 649.43 682.134 649.175 683.235 649.175C684.335 649.175 685.303 649.419 686.139 649.909C686.995 650.398 687.667 651.08 688.156 651.957C688.645 652.833 688.89 653.842 688.89 654.983V664H686.139ZM675.868 664V642.175H678.619V664H675.868ZM699.339 664.306C697.892 664.306 696.588 663.98 695.427 663.328C694.265 662.655 693.348 661.748 692.676 660.607C692.003 659.466 691.667 658.172 691.667 656.725C691.667 655.299 691.993 654.015 692.645 652.874C693.317 651.732 694.214 650.836 695.335 650.184C696.476 649.511 697.75 649.175 699.156 649.175C700.501 649.175 701.683 649.481 702.702 650.092C703.741 650.703 704.546 651.549 705.116 652.629C705.707 653.709 706.003 654.932 706.003 656.297C706.003 656.501 705.993 656.725 705.972 656.97C705.952 657.194 705.911 657.459 705.85 657.764H693.593V655.472H704.383L703.374 656.358C703.374 655.38 703.201 654.555 702.854 653.882C702.508 653.189 702.019 652.66 701.387 652.293C700.755 651.906 699.991 651.712 699.095 651.712C698.157 651.712 697.332 651.916 696.619 652.323C695.905 652.731 695.355 653.302 694.968 654.035C694.581 654.769 694.387 655.635 694.387 656.633C694.387 657.652 694.591 658.549 694.999 659.323C695.406 660.077 695.987 660.668 696.741 661.096C697.495 661.504 698.361 661.707 699.339 661.707C700.154 661.707 700.898 661.565 701.571 661.28C702.263 660.994 702.854 660.566 703.343 659.996L705.116 661.799C704.424 662.614 703.568 663.236 702.549 663.664C701.55 664.092 700.48 664.306 699.339 664.306ZM613.518 703L607.771 688.481H610.645L614.802 699.79H613.885L618.011 688.481H619.601L623.727 699.79H622.81L626.967 688.481H629.841L624.125 703H622.505L618.317 692.026H619.326L615.107 703H613.518ZM638.501 703.306C637.075 703.306 635.791 702.969 634.65 702.297C633.509 701.624 632.602 700.718 631.929 699.576C631.257 698.415 630.921 697.121 630.921 695.694C630.921 694.288 631.257 693.025 631.929 691.904C632.602 690.763 633.509 689.856 634.65 689.184C635.791 688.511 637.075 688.175 638.501 688.175C639.907 688.175 641.181 688.511 642.322 689.184C643.484 689.836 644.401 690.732 645.073 691.874C645.746 693.015 646.082 694.288 646.082 695.694C646.082 697.121 645.746 698.415 645.073 699.576C644.401 700.718 643.484 701.624 642.322 702.297C641.181 702.969 639.907 703.306 638.501 703.306ZM638.501 700.646C639.418 700.646 640.233 700.432 640.947 700.004C641.66 699.576 642.22 698.996 642.628 698.262C643.035 697.508 643.239 696.652 643.239 695.694C643.239 694.757 643.025 693.922 642.597 693.188C642.19 692.454 641.629 691.884 640.916 691.476C640.223 691.048 639.418 690.834 638.501 690.834C637.584 690.834 636.769 691.048 636.056 691.476C635.343 691.884 634.782 692.454 634.375 693.188C633.967 693.922 633.763 694.757 633.763 695.694C633.763 696.652 633.967 697.508 634.375 698.262C634.782 698.996 635.343 699.576 636.056 700.004C636.769 700.432 637.584 700.646 638.501 700.646ZM649.182 703V688.481H651.933V703H649.182ZM651.933 694.716L650.893 694.258C650.893 692.403 651.321 690.926 652.177 689.826C653.033 688.725 654.266 688.175 655.876 688.175C656.609 688.175 657.272 688.307 657.863 688.572C658.454 688.817 659.004 689.235 659.513 689.826L657.71 691.69C657.404 691.364 657.068 691.13 656.701 690.987C656.334 690.844 655.906 690.773 655.417 690.773C654.398 690.773 653.563 691.099 652.911 691.751C652.259 692.403 651.933 693.392 651.933 694.716ZM670.743 703L663.957 695.572L670.682 688.481H674.013L666.524 696.306L666.647 694.716L674.288 703H670.743ZM661.45 703V681.175H664.201V703H661.45Z" fill="black"/>
<path d="M980.73 148V126.786H983.604V148H980.73ZM982.687 138.677V136.048H993.752V138.677H982.687ZM982.687 129.415V126.786H994.272V129.415H982.687ZM997.585 148V133.481H1000.34V148H997.585ZM998.961 130.577C998.451 130.577 998.034 130.414 997.708 130.088C997.382 129.741 997.219 129.313 997.219 128.804C997.219 128.315 997.382 127.907 997.708 127.581C998.034 127.235 998.451 127.062 998.961 127.062C999.47 127.062 999.888 127.235 1000.21 127.581C1000.54 127.907 1000.7 128.315 1000.7 128.804C1000.7 129.313 1000.54 129.741 1000.21 130.088C999.888 130.414 999.47 130.577 998.961 130.577ZM1014.66 148V139.533C1014.66 138.432 1014.31 137.526 1013.62 136.812C1012.93 136.099 1012.03 135.743 1010.93 135.743C1010.2 135.743 1009.55 135.906 1008.98 136.232C1008.41 136.558 1007.96 137.006 1007.63 137.577C1007.3 138.147 1007.14 138.799 1007.14 139.533L1006.01 138.891C1006.01 137.791 1006.26 136.812 1006.74 135.957C1007.23 135.101 1007.92 134.428 1008.79 133.939C1009.67 133.43 1010.66 133.175 1011.76 133.175C1012.86 133.175 1013.83 133.45 1014.66 134C1015.52 134.55 1016.19 135.274 1016.68 136.171C1017.17 137.047 1017.41 137.984 1017.41 138.983V148H1014.66ZM1004.39 148V133.481H1007.14V148H1004.39ZM1021.17 148V133.481H1023.92V148H1021.17ZM1022.54 130.577C1022.03 130.577 1021.62 130.414 1021.29 130.088C1020.96 129.741 1020.8 129.313 1020.8 128.804C1020.8 128.315 1020.96 127.907 1021.29 127.581C1021.62 127.235 1022.03 127.062 1022.54 127.062C1023.05 127.062 1023.47 127.235 1023.8 127.581C1024.12 127.907 1024.29 128.315 1024.29 128.804C1024.29 129.313 1024.12 129.741 1023.8 130.088C1023.47 130.414 1023.05 130.577 1022.54 130.577ZM1032.59 148.306C1031.77 148.306 1031 148.204 1030.27 148C1029.55 147.776 1028.89 147.47 1028.28 147.083C1027.67 146.675 1027.14 146.197 1026.69 145.646L1028.46 143.873C1028.99 144.526 1029.6 145.015 1030.3 145.341C1030.99 145.646 1031.76 145.799 1032.62 145.799C1033.47 145.799 1034.14 145.657 1034.61 145.371C1035.07 145.066 1035.31 144.648 1035.31 144.118C1035.31 143.588 1035.12 143.181 1034.73 142.895C1034.36 142.59 1033.88 142.345 1033.29 142.162C1032.7 141.958 1032.07 141.764 1031.4 141.581C1030.74 141.377 1030.12 141.122 1029.53 140.817C1028.94 140.511 1028.45 140.093 1028.06 139.563C1027.7 139.034 1027.51 138.331 1027.51 137.454C1027.51 136.578 1027.73 135.824 1028.16 135.192C1028.58 134.54 1029.17 134.041 1029.93 133.695C1030.7 133.348 1031.63 133.175 1032.71 133.175C1033.85 133.175 1034.86 133.379 1035.74 133.786C1036.63 134.173 1037.37 134.764 1037.94 135.559L1036.16 137.332C1035.76 136.802 1035.25 136.395 1034.64 136.109C1034.05 135.824 1033.37 135.681 1032.62 135.681C1031.82 135.681 1031.21 135.824 1030.78 136.109C1030.38 136.374 1030.17 136.751 1030.17 137.24C1030.17 137.729 1030.36 138.106 1030.72 138.371C1031.09 138.636 1031.57 138.86 1032.16 139.044C1032.77 139.227 1033.4 139.421 1034.06 139.625C1034.71 139.808 1035.33 140.063 1035.92 140.389C1036.51 140.715 1036.99 141.153 1037.36 141.703C1037.74 142.253 1037.94 142.977 1037.94 143.873C1037.94 145.239 1037.45 146.319 1036.47 147.114C1035.51 147.908 1034.22 148.306 1032.59 148.306ZM1051.29 148V139.533C1051.29 138.432 1050.94 137.526 1050.25 136.812C1049.56 136.099 1048.66 135.743 1047.56 135.743C1046.83 135.743 1046.17 135.906 1045.6 136.232C1045.03 136.558 1044.58 137.006 1044.26 137.577C1043.93 138.147 1043.77 138.799 1043.77 139.533L1042.64 138.891C1042.64 137.791 1042.88 136.812 1043.37 135.957C1043.86 135.101 1044.54 134.428 1045.42 133.939C1046.3 133.43 1047.28 133.175 1048.38 133.175C1049.48 133.175 1050.45 133.419 1051.29 133.909C1052.14 134.398 1052.82 135.08 1053.31 135.957C1053.79 136.833 1054.04 137.842 1054.04 138.983V148H1051.29ZM1041.02 148V126.175H1043.77V148H1041.02ZM1057.79 148V133.481H1060.55V148H1057.79ZM1059.17 130.577C1058.66 130.577 1058.24 130.414 1057.92 130.088C1057.59 129.741 1057.43 129.313 1057.43 128.804C1057.43 128.315 1057.59 127.907 1057.92 127.581C1058.24 127.235 1058.66 127.062 1059.17 127.062C1059.68 127.062 1060.1 127.235 1060.42 127.581C1060.75 127.907 1060.91 128.315 1060.91 128.804C1060.91 129.313 1060.75 129.741 1060.42 130.088C1060.1 130.414 1059.68 130.577 1059.17 130.577ZM1074.87 148V139.533C1074.87 138.432 1074.52 137.526 1073.83 136.812C1073.14 136.099 1072.24 135.743 1071.14 135.743C1070.41 135.743 1069.76 135.906 1069.18 136.232C1068.61 136.558 1068.17 137.006 1067.84 137.577C1067.51 138.147 1067.35 138.799 1067.35 139.533L1066.22 138.891C1066.22 137.791 1066.46 136.812 1066.95 135.957C1067.44 135.101 1068.12 134.428 1069 133.939C1069.88 133.43 1070.87 133.175 1071.97 133.175C1073.07 133.175 1074.03 133.45 1074.87 134C1075.73 134.55 1076.4 135.274 1076.89 136.171C1077.38 137.047 1077.62 137.984 1077.62 138.983V148H1074.87ZM1064.6 148V133.481H1067.35V148H1064.6ZM1087.37 154.389C1085.88 154.389 1084.56 154.113 1083.39 153.563C1082.25 153.013 1081.34 152.239 1080.64 151.24L1082.42 149.437C1083.01 150.191 1083.71 150.761 1084.52 151.148C1085.34 151.556 1086.31 151.76 1087.43 151.76C1088.92 151.76 1090.09 151.362 1090.94 150.568C1091.82 149.793 1092.26 148.744 1092.26 147.419V143.812L1092.75 140.542L1092.26 137.302V133.481H1095.01V147.419C1095.01 148.805 1094.68 150.017 1094.03 151.057C1093.4 152.096 1092.5 152.911 1091.34 153.502C1090.2 154.093 1088.88 154.389 1087.37 154.389ZM1087.37 147.755C1086.04 147.755 1084.85 147.44 1083.79 146.808C1082.75 146.176 1081.93 145.31 1081.32 144.21C1080.7 143.089 1080.4 141.836 1080.4 140.45C1080.4 139.064 1080.7 137.831 1081.32 136.751C1081.93 135.651 1082.75 134.785 1083.79 134.153C1084.85 133.501 1086.04 133.175 1087.37 133.175C1088.51 133.175 1089.52 133.399 1090.39 133.847C1091.27 134.296 1091.96 134.927 1092.47 135.743C1093 136.537 1093.29 137.475 1093.33 138.555V142.406C1093.27 143.466 1092.97 144.403 1092.44 145.218C1091.93 146.013 1091.24 146.635 1090.36 147.083C1089.49 147.531 1088.49 147.755 1087.37 147.755ZM1087.92 145.157C1088.81 145.157 1089.6 144.964 1090.27 144.576C1090.96 144.189 1091.49 143.649 1091.86 142.956C1092.23 142.243 1092.41 141.418 1092.41 140.48C1092.41 139.543 1092.22 138.728 1091.83 138.035C1091.46 137.322 1090.94 136.772 1090.27 136.384C1089.6 135.977 1088.8 135.773 1087.89 135.773C1086.97 135.773 1086.17 135.977 1085.47 136.384C1084.78 136.772 1084.23 137.322 1083.82 138.035C1083.43 138.728 1083.24 139.533 1083.24 140.45C1083.24 141.367 1083.43 142.182 1083.82 142.895C1084.23 143.609 1084.78 144.169 1085.47 144.576C1086.19 144.964 1087 145.157 1087.92 145.157ZM1107.64 148V127.398H1110.39V148H1107.64ZM1104.06 135.987V133.481H1113.96V135.987H1104.06ZM1126.93 148V139.533C1126.93 138.432 1126.58 137.526 1125.89 136.812C1125.2 136.099 1124.3 135.743 1123.2 135.743C1122.47 135.743 1121.81 135.906 1121.24 136.232C1120.67 136.558 1120.23 137.006 1119.9 137.577C1119.57 138.147 1119.41 138.799 1119.41 139.533L1118.28 138.891C1118.28 137.791 1118.52 136.812 1119.01 135.957C1119.5 135.101 1120.18 134.428 1121.06 133.939C1121.94 133.43 1122.93 133.175 1124.03 133.175C1125.13 133.175 1126.09 133.419 1126.93 133.909C1127.79 134.398 1128.46 135.08 1128.95 135.957C1129.44 136.833 1129.68 137.842 1129.68 138.983V148H1126.93ZM1116.66 148V126.175H1119.41V148H1116.66ZM1140.13 148.306C1138.68 148.306 1137.38 147.98 1136.22 147.328C1135.06 146.655 1134.14 145.748 1133.47 144.607C1132.79 143.466 1132.46 142.172 1132.46 140.725C1132.46 139.299 1132.78 138.015 1133.44 136.874C1134.11 135.732 1135.01 134.836 1136.13 134.184C1137.27 133.511 1138.54 133.175 1139.95 133.175C1141.29 133.175 1142.47 133.481 1143.49 134.092C1144.53 134.703 1145.34 135.549 1145.91 136.629C1146.5 137.709 1146.79 138.932 1146.79 140.297C1146.79 140.501 1146.78 140.725 1146.76 140.97C1146.74 141.194 1146.7 141.459 1146.64 141.764H1134.38V139.472H1145.17L1144.17 140.358C1144.17 139.38 1143.99 138.555 1143.65 137.882C1143.3 137.189 1142.81 136.66 1142.18 136.293C1141.55 135.906 1140.78 135.712 1139.89 135.712C1138.95 135.712 1138.12 135.916 1137.41 136.323C1136.7 136.731 1136.15 137.302 1135.76 138.035C1135.37 138.769 1135.18 139.635 1135.18 140.633C1135.18 141.652 1135.38 142.549 1135.79 143.323C1136.2 144.077 1136.78 144.668 1137.53 145.096C1138.29 145.504 1139.15 145.707 1140.13 145.707C1140.95 145.707 1141.69 145.565 1142.36 145.28C1143.05 144.994 1143.65 144.566 1144.13 143.996L1145.91 145.799C1145.21 146.614 1144.36 147.236 1143.34 147.664C1142.34 148.092 1141.27 148.306 1140.13 148.306ZM1035.52 187L1029.77 172.481H1032.64L1036.8 183.79H1035.88L1040.01 172.481H1041.6L1045.73 183.79H1044.81L1048.97 172.481H1051.84L1046.12 187H1044.5L1040.32 176.026H1041.33L1037.11 187H1035.52ZM1060.5 187.306C1059.07 187.306 1057.79 186.969 1056.65 186.297C1055.51 185.624 1054.6 184.718 1053.93 183.576C1053.26 182.415 1052.92 181.121 1052.92 179.694C1052.92 178.288 1053.26 177.025 1053.93 175.904C1054.6 174.763 1055.51 173.856 1056.65 173.184C1057.79 172.511 1059.07 172.175 1060.5 172.175C1061.91 172.175 1063.18 172.511 1064.32 173.184C1065.48 173.836 1066.4 174.732 1067.07 175.874C1067.75 177.015 1068.08 178.288 1068.08 179.694C1068.08 181.121 1067.75 182.415 1067.07 183.576C1066.4 184.718 1065.48 185.624 1064.32 186.297C1063.18 186.969 1061.91 187.306 1060.5 187.306ZM1060.5 184.646C1061.42 184.646 1062.23 184.432 1062.95 184.004C1063.66 183.576 1064.22 182.996 1064.63 182.262C1065.04 181.508 1065.24 180.652 1065.24 179.694C1065.24 178.757 1065.03 177.922 1064.6 177.188C1064.19 176.454 1063.63 175.884 1062.92 175.476C1062.22 175.048 1061.42 174.834 1060.5 174.834C1059.58 174.834 1058.77 175.048 1058.06 175.476C1057.34 175.884 1056.78 176.454 1056.37 177.188C1055.97 177.922 1055.76 178.757 1055.76 179.694C1055.76 180.652 1055.97 181.508 1056.37 182.262C1056.78 182.996 1057.34 183.576 1058.06 184.004C1058.77 184.432 1059.58 184.646 1060.5 184.646ZM1071.18 187V172.481H1073.93V187H1071.18ZM1073.93 178.716L1072.89 178.258C1072.89 176.403 1073.32 174.926 1074.18 173.826C1075.03 172.725 1076.27 172.175 1077.88 172.175C1078.61 172.175 1079.27 172.307 1079.86 172.572C1080.45 172.817 1081 173.235 1081.51 173.826L1079.71 175.69C1079.4 175.364 1079.07 175.13 1078.7 174.987C1078.33 174.844 1077.91 174.773 1077.42 174.773C1076.4 174.773 1075.56 175.099 1074.91 175.751C1074.26 176.403 1073.93 177.392 1073.93 178.716ZM1092.74 187L1085.96 179.572L1092.68 172.481H1096.01L1088.52 180.306L1088.65 178.716L1096.29 187H1092.74ZM1083.45 187V165.175H1086.2V187H1083.45Z" fill="black"/>
<path d="M165.068 506.505L405 479L633 623L945 123" stroke="black"/>
<path d="M145.153 468.51V549H125.738V486.667H125.267L107.266 497.672V480.851L127.114 468.51H145.153Z" fill="#2B6036"/>
<path d="M585.935 564V550.009L615.293 524.305C617.494 522.314 619.367 520.493 620.913 518.842C622.459 517.165 623.638 515.488 624.45 513.811C625.263 512.108 625.669 510.261 625.669 508.27C625.669 506.043 625.184 504.143 624.215 502.571C623.245 500.973 621.909 499.741 620.206 498.877C618.503 498.012 616.551 497.58 614.35 497.58C612.123 497.58 610.171 498.038 608.494 498.955C606.817 499.846 605.507 501.143 604.564 502.846C603.647 504.549 603.188 506.619 603.188 509.056H584.756C584.756 503.58 585.987 498.851 588.45 494.868C590.913 490.885 594.371 487.82 598.826 485.671C603.306 483.497 608.507 482.409 614.428 482.409C620.533 482.409 625.839 483.431 630.346 485.475C634.852 487.519 638.337 490.374 640.8 494.043C643.289 497.685 644.534 501.916 644.534 506.737C644.534 509.803 643.918 512.842 642.687 515.855C641.455 518.868 639.241 522.196 636.044 525.838C632.874 529.48 628.368 533.842 622.525 538.925L612.896 547.808V548.319H645.516V564H585.935Z" fill="#2B6036"/>
<path d="M1046.55 99.1005C1040.42 99.1005 1034.98 98.0524 1030.24 95.9563C1025.52 93.834 1021.8 90.9126 1019.08 87.192C1016.35 83.4714 1014.97 79.1875 1014.91 74.3403H1034.49C1034.56 76.0957 1035.13 77.6547 1036.18 79.0172C1037.22 80.3535 1038.65 81.4015 1040.46 82.1613C1042.27 82.9212 1044.32 83.3011 1046.63 83.3011C1048.94 83.3011 1050.97 82.895 1052.72 82.0827C1054.5 81.2443 1055.89 80.1045 1056.89 78.6635C1057.88 77.1962 1058.37 75.5193 1058.34 73.6328C1058.37 71.7463 1057.83 70.0695 1056.73 68.6022C1055.63 67.1349 1054.07 65.9952 1052.05 65.1829C1050.06 64.3707 1047.7 63.9646 1044.98 63.9646H1037.16V50.1303H1044.98C1047.36 50.1303 1049.46 49.7373 1051.27 48.9512C1053.1 48.1652 1054.53 47.0647 1055.55 45.6499C1056.57 44.2088 1057.07 42.5581 1057.04 40.6978C1057.07 38.89 1056.64 37.3048 1055.75 35.9423C1054.88 34.5536 1053.66 33.4794 1052.09 32.7196C1050.55 31.9597 1048.75 31.5798 1046.71 31.5798C1044.56 31.5798 1042.61 31.9597 1040.85 32.7196C1039.12 33.4794 1037.75 34.5536 1036.73 35.9423C1035.7 37.331 1035.17 38.9424 1035.11 40.7764H1016.52C1016.58 35.9816 1017.91 31.7632 1020.53 28.1212C1023.15 24.4531 1026.72 21.584 1031.22 19.5141C1035.76 17.4442 1040.92 16.4093 1046.71 16.4093C1052.47 16.4093 1057.54 17.418 1061.92 19.4355C1066.29 21.453 1069.7 24.2041 1072.14 27.6889C1074.57 31.1475 1075.79 35.0646 1075.79 39.4402C1075.82 43.973 1074.34 47.7067 1071.35 50.6412C1068.39 53.5758 1064.58 55.3836 1059.91 56.0649V56.6937C1066.15 57.4273 1070.85 59.4448 1074.02 62.7462C1077.22 66.0476 1078.8 70.1743 1078.78 75.1263C1078.78 79.7901 1077.4 83.9299 1074.65 87.5457C1071.93 91.1353 1068.13 93.965 1063.25 96.0349C1058.41 98.0786 1052.84 99.1005 1046.55 99.1005Z" fill="#2B6036"/>
</g>
<defs>
<clipPath id="clip0_116_855">
<rect y="-798" width="1440" height="2022" rx="25" fill="white"/>
</clipPath>
</defs>
</svg>
